<?xml version="1.0" encoding="utf-8"?>
<!DOCTYPE svg PUBLIC "-//W3C//DTD SVG 1.1//EN" "http://www.w3.org/Graphics/SVG/1.1/DTD/svg11.dtd">
<svg xmlns="http://www.w3.org/2000/svg" xmlns:xlink="http://www.w3.org/1999/xlink" version="1.1" id="joypad" viewBox="0 0 1883.52 1883.52" style="max-height: 100%;" xml:space="preserve" xmlns:xml="http://www.w3.org/XML/1998/namespace" preserveAspectRatio="xMaxYMid meet">
<g id="b-graphic">
	<path fill="#FFFFFF" d="M457.304,928.444h-36.4v133c10.5,1.4,23.1,1.4,41.301,1.4c48.299,0,90.999-18.9,90.999-68.6
		C553.203,947.344,510.503,928.444,457.304,928.444z"/>
	<path fill="#FFFFFF" d="M542.003,794.044c0-35.7-27.3-54.6-75.6-54.6c-23.8,0-37.1,1.4-45.5,2.8v109.899h35
		C512.604,852.144,542.003,829.044,542.003,794.044z"/>
	<path fill="#FFFFFF" d="M472.345,428.555c-260.315,0-471.344,211.028-471.344,471.345c0,260.317,211.028,471.344,471.344,471.344
		c260.317,0,471.346-211.026,471.346-471.344C943.69,639.583,732.662,428.555,472.345,428.555z M616.203,1099.243
		c-34.3,27.3-91.7,42.7-185.499,42.7c-52.5,0-91.7-3.5-115.5-7V671.545c28-4.9,84-9.8,137.899-9.8c65.1,0,105,6.3,139.999,26.6
		c32.9,17.5,56,49.7,56,93.1c0,41.3-24.5,79.8-77.699,100.1v1.4c53.899,14,93.8,55.3,93.8,115.5
		C665.203,1041.844,645.603,1075.443,616.203,1099.243z"/>
</g>
<g id="a-graphic">
	<g>
		<g>
			<g>
				<path fill="#FFFFFF" d="M1427.977,384.556c-8.4-28-16.801-63-23.801-91h-1.398c-7,28-14,63.701-21.701,91l-28,100.101h104.301L1427.977,384.556
					z"/>
			</g>
		</g>
	</g>
	<g>
		<g>
			<g>
				<path fill="#FFFFFF" d="M1411.174,2.211c-260.316,0-471.344,211.028-471.344,471.345c0,260.317,211.028,471.344,471.344,471.344
					s471.346-211.026,471.346-471.344C1882.52,213.239,1671.49,2.211,1411.174,2.211z M1509.176,685.555l-36.398-121.1h-135.1
					l-33.6,121.1h-109.9l143.5-471.798h139.998l147,471.798H1509.176z"/>
			</g>
		</g>
	</g>
</g>
<path fill="#FFFFFF" id="select-graphic" d="M760.133,1622.055H184.557c-71.926,0-130.232,58.307-130.232,130.232s58.307,130.232,130.232,130.232
	h575.576c71.926,0,130.232-58.307,130.232-130.232S832.059,1622.055,760.133,1622.055z M190.95,1826.139
	c-15.399,0-30.6-4.2-38.199-8.399l6.2-25c8,4.2,20.799,8.399,33.799,8.399c14,0,21.4-5.8,21.4-14.6c0-8.399-6.4-13.199-22.6-18.8
	c-22.4-8-37.2-20.399-37.2-39.999c0-23,19.399-40.399,50.999-40.399c15.4,0,26.4,3,34.4,6.8l-6.801,24.399
	c-5.199-2.6-15-6.399-27.999-6.399c-13.2,0-19.6,6.199-19.6,13c0,8.6,7.399,12.399,24.999,18.999c23.8,8.8,34.8,21.2,34.8,40.199
	C245.149,1806.938,227.949,1826.139,190.95,1826.139z M351.948,1824.139h-85.799v-134.798h82.999v25h-52.6v27.999h49.6v24.8h-49.6
	v31.999h55.399V1824.139z M456.947,1824.139h-83.998v-134.798h30.398v109.198h53.6V1824.139z M560.944,1824.139h-85.799v-134.798
	h82.999v25h-52.599v27.999h49.599v24.8h-49.599v31.999h55.398V1824.139z M650.545,1800.939c9.399,0,19.399-1.801,25.6-4.4l4.399,24
	c-5.399,2.6-18.199,5.8-34.399,5.8c-46.599,0-70.599-29.2-70.599-67.6c0-45.999,32.8-71.398,73.599-71.398c15.8,0,27.8,3,33.199,6
	l-6.399,23.999c-6-2.6-14.6-4.999-25.6-4.999c-24,0-42.8,14.6-42.8,44.599C607.545,1783.939,623.545,1800.939,650.545,1800.939z
	 M796.939,1714.94h-36.8v109.198H729.74V1714.94h-36.399v-25.6h103.599V1714.94z"/>
<g id="start-graphic">
	<path fill="#FFFFFF" d="M1404.73,1712.141h-0.399c-2,8-4,18.199-6.2,25.999l-8,28.6h29.8l-8.399-28.6
		C1409.131,1730.14,1406.73,1720.141,1404.73,1712.141z"/>
	<path fill="#FFFFFF" d="M1529.529,1711.141c-7.4,0-11.6,0.399-13.8,1v36.999h12c15.199,0,24.199-7.6,24.199-19.399
		C1551.929,1717.54,1543.529,1711.141,1529.529,1711.141z"/>
	<path fill="#FFFFFF" d="M1707.018,1622.055h-575.576c-71.926,0-130.232,58.307-130.232,130.232s58.307,130.232,130.232,130.232h575.576
		c71.926,0,130.232-58.307,130.232-130.232S1778.943,1622.055,1707.018,1622.055z M1184.133,1826.139c-15.4,0-30.6-4.2-38.199-8.399
		l6.199-25c8,4.2,20.801,8.399,33.8,8.399c14,0,21.399-5.8,21.399-14.6c0-8.399-6.399-13.199-22.6-18.8
		c-22.399-8-37.199-20.399-37.199-39.999c0-23,19.4-40.399,51-40.399c15.399,0,26.398,3,34.398,6.8l-6.799,24.399
		c-5.201-2.6-15-6.399-28-6.399c-13.199,0-19.6,6.199-19.6,13c0,8.6,7.399,12.399,25,18.999c23.799,8.8,34.799,21.2,34.799,40.199
		C1238.332,1806.938,1221.133,1826.139,1184.133,1826.139z M1315.73,1824.139h-30.398V1714.94h-36.4v-25.6h103.599v25.6h-36.8
		V1824.139z M1434.73,1824.139l-10.4-34.6h-38.6l-9.6,34.6h-31.398l40.998-134.798h40l41.999,134.798H1434.73z M1556.129,1824.139
		c-2-4-5.4-14.8-9.2-31.399c-3.8-17-9.6-21.399-22.199-21.6h-9v52.999h-30.199v-132.998c9.8-1.6,24.199-2.8,40.599-2.8
		c20,0,34,3,43.6,10.6c8.2,6.4,12.6,16,12.6,28.399c0,17-12.199,28.8-23.8,33v0.6c9.4,3.8,14.601,12.6,18,25
		c4.2,15.399,8.2,32.999,10.8,38.199H1556.129z M1697.526,1714.94h-36.8v109.198h-30.399V1714.94h-36.399v-25.6h103.599V1714.94z"/>
</g>
<circle class="clickmask" id="b" opacity="0" fill="#8DC63F" cx="472.345" cy="899.899" r="471.344"/>
<circle class="clickmask" id="a" opacity="0" fill="#EC008C" cx="1411.175" cy="473.556" r="471.344"/>
<path class="clickmask" id="select" opacity="0" fill="#FFDE17" d="M890.366,1752.287c0-71.926-58.307-130.232-130.232-130.232H184.557
	c-71.925,0-130.232,58.307-130.232,130.232l0,0c0,71.926,58.307,130.232,130.232,130.232h575.576
	C832.059,1882.52,890.366,1824.213,890.366,1752.287L890.366,1752.287z"/>
<path class="clickmask" id="start" opacity="0" fill="#F26522" d="M1838.303,1752.287c0-71.926-58.307-130.232-130.232-130.232h-575.576
	c-71.926,0-130.232,58.307-130.232,130.232l0,0c0,71.926,58.307,130.232,130.232,130.232h575.576
	C1779.996,1882.52,1838.303,1824.213,1838.303,1752.287L1838.303,1752.287z"/>
</svg>
