<?xml version="1.0" encoding="utf-8"?>

<!-- License Agreement at http://iconmonstr.com/license/ -->

<!DOCTYPE svg PUBLIC "-//W3C//DTD SVG 1.1//EN" "http://www.w3.org/Graphics/SVG/1.1/DTD/svg11.dtd">
<svg version="1.1" xmlns="http://www.w3.org/2000/svg" xmlns:xlink="http://www.w3.org/1999/xlink" x="0px" y="0px"
	 width="512px" height="512px" viewBox="0 0 512 512" enable-background="new 0 0 512 512" xml:space="preserve">
<path id="bitcoin-icon" d="M361.971,239.062c36.665-26.262,51.562-119.057-67.002-131.281L294.968,50H246.95l0.001,56.086h-20.357
	V50h-47.985l-0.015,56.086h-76.631l0.011,51.949l35.606-0.021c11.648,0.003,13.862,5.488,13.862,12.654v164.086
	c0,9.123-4.417,13.588-14.278,13.588h-26.879l-9.207,55.616h77.523L178.618,462h47.976v-58.042h20.36L246.936,462h48.021v-58.231
	C440.217,393.8,432.451,263.431,361.971,239.062z M226.593,226.715v-66.021c34.72,0,79.767-1.01,79.772,33.036
	C306.356,226.479,260.096,226.715,226.593,226.715z M226.593,274.918c38.505-0.763,97.454-1.812,97.451,36.888
	c0.016,37.604-60.552,36.567-97.451,36.567V274.918z"/>
</svg>
