<?xml version="1.0" encoding="utf-8"?>

<!-- The icon can be used freely in both personal and commercial projects with no attribution required, but always appreciated. 
You may NOT sub-license, resell, rent, redistribute or otherwise transfer the icon without express written permission from iconmonstr.com -->

<!DOCTYPE svg PUBLIC "-//W3C//DTD SVG 1.1//EN" "http://www.w3.org/Graphics/SVG/1.1/DTD/svg11.dtd">
<svg version="1.1" xmlns="http://www.w3.org/2000/svg" xmlns:xlink="http://www.w3.org/1999/xlink" x="0px" y="0px"
	 width="512px" height="512px" viewBox="0 0 512 512" enable-background="new 0 0 512 512" xml:space="preserve">
<path id="bug-2-icon" d="M172.769,74.168C172.769,60.821,183.59,50,196.937,50c15.931,0,27.49,15.162,23.331,30.495
	c-1.564,5.773-0.724,11.933,2.332,17.075c6.774,11.4,18.315,18.42,33.4,18.499c14.877-0.079,26.57-7.004,33.4-18.499
	c3.056-5.142,3.896-11.302,2.332-17.075C287.579,65.182,299.111,50,315.063,50c13.347,0,24.168,10.821,24.168,24.168
	c0,11.587-8.134,21.189-18.88,23.59c-5.439,1.215-10.136,4.621-12.983,9.412c-10.979,18.477,4.957,34.719,17.915,51.213
	c-39.593,20.71-98.974,20.71-138.566,0c13.159-16.749,28.975-32.598,17.916-51.213c-2.849-4.791-7.544-8.196-12.984-9.412
	C180.901,95.357,172.769,85.755,172.769,74.168z M379.052,334.758c-1.754,11.073,4.529,19.947,12.899,23.735l40.897,18.501
	c8.961,4.054,12.938,14.604,8.886,23.564c-4.062,8.979-14.627,12.931-23.565,8.885l-43.265-19.572
	c-5.673-2.568-11.872-1.155-16.279,6.254C340.635,426.36,305.553,456.392,256,462c-50.541-5.72-86.029-36.848-103.682-67.685
	c-3.592-6.271-10.033-6.793-15.223-4.444l-43.265,19.572c-8.949,4.049-19.509,0.085-23.564-8.885
	c-4.054-8.961-0.076-19.511,8.885-23.564l40.897-18.501c8.84-4.001,14.595-12.598,12.688-25.093
	c-1.785-11.751-11.693-18.135-21.367-18.135H71.027c-9.836,0-17.809-7.973-17.809-17.808s7.973-17.808,17.809-17.808h40.595
	c9.339,0,19.079-6.056,20.876-19.067c1.378-9.952-4.678-18.563-13.059-21.869l-37.71-14.872c-9.15-3.608-13.642-13.95-10.033-23.1
	c3.607-9.149,13.949-13.641,23.099-10.033l38.775,15.292c4.984,1.966,12.072,1.315,15.911-7.512
	c3.722-8.557,7.923-16.558,12.563-23.836c34.631,15.594,64.296,23.388,93.957,23.388c29.668,0,59.331-7.798,93.953-23.388
	c4.752,7.453,9.044,15.665,12.831,24.455c3.237,7.516,10.098,9.081,15.645,6.893l38.775-15.292
	c9.148-3.608,19.49,0.884,23.098,10.033c3.608,9.15-0.883,19.492-10.033,23.1l-37.71,14.872
	c-8.085,3.188-14.472,11.252-12.922,22.875c1.524,11.32,11.017,18.062,20.739,18.062h40.595c9.836,0,17.809,7.973,17.809,17.808
	s-7.973,17.808-17.809,17.808H400.63C391.198,315.266,381.24,320.96,379.052,334.758z M346.571,281.009
	c-1.731-22.489-6.868-44.345-14.567-62.786c-27.178,9.873-51.79,14.544-76.002,14.544c-24.214,0-48.828-4.672-76.006-14.544
	c-7.699,18.441-12.836,40.296-14.567,62.786c-5.417,70.354,19.979,135.449,90.571,145.265
	C326.595,416.457,351.988,351.361,346.571,281.009z"/>
</svg>
