<?xml version="1.0" encoding="utf-8"?>


<!-- The icon can be used freely in both personal and commercial projects with no attribution required, but always appreciated. 
You may NOT sub-license, resell, rent, redistribute or otherwise transfer the icon without express written permission from iconmonstr.com -->


<!DOCTYPE svg PUBLIC "-//W3C//DTD SVG 1.1//EN" "http://www.w3.org/Graphics/SVG/1.1/DTD/svg11.dtd">

<svg version="1.1" xmlns="http://www.w3.org/2000/svg" xmlns:xlink="http://www.w3.org/1999/xlink" x="0px" y="0px"

	 width="512px" height="512px" viewBox="0 0 512 512" enable-background="new 0 0 512 512" xml:space="preserve">

<path id="eye-7-icon" d="M256.494,376.142c-81.596,0-158.057-55.949-206.494-126.949c53.886-75.543,133.401-113.334,206.494-113.334

	c73.393,0,153.516,37.396,205.506,112.907C417.427,323.048,341.014,376.142,256.494,376.142z M93.602,249.773

	c39.782,49.138,98.528,91.364,162.893,91.364c87.674,0,144.426-65.701,163.012-90.982c-39.571-46.558-97.767-79.293-163.012-79.293

	C171.679,170.862,113.876,226.686,93.602,249.773z M258.352,256.083l-58.391-37.729c-7.036,10.865-11.12,23.819-11.12,37.729

	c0,38.39,31.121,69.511,69.511,69.511c38.391,0,69.512-31.121,69.512-69.511s-31.121-69.511-69.512-69.511

	c-12.896,0-24.972,3.512-35.322,9.632L258.352,256.083z"/>

</svg>

