<?xml version="1.0" encoding="utf-8"?>
<!DOCTYPE svg PUBLIC "-//W3C//DTD SVG 1.1//EN" "http://www.w3.org/Graphics/SVG/1.1/DTD/svg11.dtd">

<svg xmlns="http://www.w3.org/2000/svg" xmlns:xlink="http://www.w3.org/1999/xlink" version="1.1" viewBox="0 0 35.223 53.852" style="max-height: 100%;" xml:space="preserve" xmlns:xml="http://www.w3.org/XML/1998/namespace" preserveAspectRatio="xMinYMin meet">
<path fill-rule="evenodd" clip-rule="evenodd" fill="#EEEEEE" d="M35.223,0.133c-1.448,0.817-2.717,1.635-4.07,2.268
	c-1.365,0.639-2.897,0.041-4.471,0.354c0.522,0.495,0.99,0.901,1.416,1.348c4.741,4.977,4.427,12.013-0.736,16.549
	c-0.84,0.737-1.75,1.405-2.523,2.207c-1.921,1.996-1.789,3.864,0.336,5.629c1.477,1.225,2.979,2.416,4.455,3.642
	c6.6,5.479,4.753,13.589-0.799,17.784c-2.883,2.179-6.174,3.399-9.725,3.708c-4.265,0.369-8.554,0.504-12.624-1.272
	c-2.734-1.193-4.962-2.929-6.007-5.837c-1.277-3.556,0.085-7.664,3.332-10.254c2.873-2.291,6.249-3.311,9.804-3.842
	c1.652-0.246,3.319-0.393,5.009-0.588c0.037-0.531-0.43-0.809-0.677-1.184c-1.072-1.626-1.52-3.367-0.851-5.233
	c0.325-0.906,0.051-0.981-0.742-0.931c-3.534,0.229-6.764-0.566-9.393-3.071C1.993,16.679,2.518,8.486,8.036,3.928
	c3.193-2.638,6.96-3.74,10.991-3.846c5.236-0.139,10.477-0.057,15.715-0.066C34.842,0.016,34.942,0.062,35.223,0.133z
	 M18.122,50.887c2.937,0.034,5.418-0.516,7.216-1.51c3.992-2.206,4.89-7.025,1.963-10.509c-0.829-0.987-1.901-1.705-2.822-2.585
	c-2.11-2.017-4.482-2.794-7.413-2.227c-2.515,0.486-5.052,0.795-7.276,2.192c-4.433,2.785-4.729,8.558-0.615,11.815
	C11.917,50.236,15.159,50.746,18.122,50.887z M9.834,10.135c-0.084,0.787,0.073,1.698,0.254,2.596
	c0.627,3.106,1.704,6.016,4.206,8.131c3.846,3.251,9.88,1.323,10.62-3.469c0.734-4.746-0.593-9.035-3.744-12.658
	c-1.545-1.775-3.574-2.686-6.004-2.171C11.615,3.317,9.833,5.828,9.834,10.135z"/>
</svg>
