<?xml version="1.0" encoding="utf-8"?>
<!DOCTYPE svg PUBLIC "-//W3C//DTD SVG 1.1//EN" "http://www.w3.org/Graphics/SVG/1.1/DTD/svg11.dtd">
<svg xmlns="http://www.w3.org/2000/svg" xmlns:xlink="http://www.w3.org/1999/xlink" version="1.1" id="joypad" viewBox="0 0 1883.52 1883.52" style="max-height: 100%;" xml:space="preserve" xmlns:xml="http://www.w3.org/XML/1998/namespace" preserveAspectRatio="xMinYMid meet">
<g id="joypad">
	<path id="graphic-up" fill-rule="evenodd" clip-rule="evenodd" fill="#FFFFFF" d="M672.76,1c179.33,0,358.671,0,538,0
		c24.107,5.893,39.107,20.892,45,45c0,205.335,0,410.666,0,616c-209.331,0-418.669,0-628,0c0-205.335,0-410.666,0-616
		C633.652,21.892,648.652,6.893,672.76,1z M738.76,435c133.333,0,266.667,0,400,0c-66.952-119.05-133.048-238.951-202-356
		C871.694,198.607,803.958,315.53,738.76,435z"/>
	<path id="graphic-right" fill-rule="evenodd" clip-rule="evenodd" fill="#FFFFFF" d="M1882.76,672.76c0,179.33,0,358.671,0,538
		c-5.893,24.107-20.893,39.107-45,45c-205.335,0-410.666,0-616,0c0-209.331,0-418.669,0-628c205.335,0,410.666,0,616,0
		C1861.867,633.652,1876.867,648.652,1882.76,672.76z M1448.76,738.76c0,133.333,0,266.667,0,400
		c119.05-66.952,238.95-133.048,356-202C1685.152,871.694,1568.229,803.959,1448.76,738.76z"/>
	<path id="graphic-down" fill-rule="evenodd" clip-rule="evenodd" fill="#FFFFFF" d="M1210.76,1882.76c-179.33,0-358.671,0-538,0
		c-24.108-5.893-39.107-20.893-45-45c0-205.335,0-410.666,0-616c209.332,0,418.669,0,628,0c0,205.335,0,410.666,0,616
		C1249.867,1861.867,1234.867,1876.867,1210.76,1882.76z M1144.76,1448.76c-133.333,0-266.667,0-400,0
		c66.952,119.05,133.047,238.95,202,356C1011.825,1685.152,1079.561,1568.229,1144.76,1448.76z"/>
	<path id="graphic-left" fill-rule="evenodd" clip-rule="evenodd" fill="#FFFFFF" d="M1,1210.76c0-179.33,0-358.671,0-538
		c5.893-24.107,20.892-39.107,45-45c205.335,0,410.666,0,616,0c0,209.331,0,418.669,0,628c-205.335,0-410.666,0-616,0
		C21.892,1249.867,6.893,1234.867,1,1210.76z M435,1144.76c0-133.333,0-266.667,0-400c-119.05,66.952-238.951,133.048-356,202
		C198.607,1011.825,315.53,1079.561,435,1144.76z"/>
	<rect id="graphic-middle" x="628" y="627.76" fill="#FFFFFF" width="627.76" height="628"/>

	<polygon 	class="clickmask" id="touch-up" 		data-keycode="up" opacity="0" fill="#EC008C" points="941.88,941.76 585.692,585.945 514.546,0 1369.277,0 1298.098,585.702"/>
	<polyline 	class="clickmask" id="touch-left" 		data-keycode="left" opacity="0" fill="#39B54A" points="0,514.473 585.692,585.945 941.88,941.76 585.676,1297.693 0,1368.836"/>
	<polyline 	class="clickmask" id="touch-right" 		data-keycode="right" opacity="0" fill="#FFDE17" points="1883.52,514.473 1298.098,585.702 941.88,941.76 1297.439,1298.213 1883.52,1368.836"/>
	<polyline 	class="clickmask" id="touch-down" 		data-keycode="down" opacity="0" fill="#00AEEF" points="514.546,1883.52 585.676,1297.693 941.88,941.76 1297.439,1298.213 1369.277,1883.52"/>
	<rect 		class="clickmask" id="touch-glide" 		data-keycode="glide" opacity="0" fill="#ED1C24" x="678.676" y="678.403" width="526.084" height="526.193"/>
	<polygon 	class="clickmask" id="touch-up-right" 	data-keycode="up right" opacity="0" fill="#FEBC12" points="1298.098,585.702 1369.277,0 1552.26,0 1883.52,331.5 1883.52,514.473"/>
	<polygon 	class="clickmask" id="touch-up-left" 	data-keycode="up left" opacity="0" fill="#FEBC12" points="585.692,585.945 0,514.473 0,331.5 331.5,0 514.546,0"/>
	<polygon 	class="clickmask" id="touch-down-right" data-keycode="down right" opacity="0" fill="#FEBC12" points="1297.439,1298.213 1883.52,1368.836 1883.52,1552.26 1552.262,1883.52 1369.277,1883.52"/>
	<polygon 	class="clickmask" id="touch-down-left" 	data-keycode="down left" opacity="0" fill="#FEBC12" points="585.676,1297.693 514.546,1883.52 331.5,1883.52 0,1552.26 0,1368.836"/>
</g>
</svg>
