<?xml version="1.0" encoding="utf-8"?>

<!DOCTYPE svg PUBLIC "-//W3C//DTD SVG 1.1//EN" "http://www.w3.org/Graphics/SVG/1.1/DTD/svg11.dtd">
<svg xmlns="http://www.w3.org/2000/svg" xmlns:xlink="http://www.w3.org/1999/xlink" version="1.1" viewBox="0 0 320.008 268.525" style="max-height: 100%;" xml:space="preserve" xmlns:xml="http://www.w3.org/XML/1998/namespace" preserveAspectRatio="xMinYMin meet">
<path fill-rule="evenodd" clip-rule="evenodd" fill="#EEEEEE" d="M159.998,0.002c51.245,0,102.49,0,153.736,0
	c6.271,0,6.271-0.001,6.271,6.457c0,11.582,0.001,23.165-0.001,34.747c0,4.303-0.003,4.307-4.227,4.307
	c-65.244,0.001-130.488,0.001-195.732,0.001c-38.663,0-77.327,0-115.99-0.001c-4.046,0-4.052-0.006-4.053-3.98
	C0,29.035,0.001,16.535,0.002,4.037C0.002-0.017,0.004,0,4.012,0C56.007,0.003,108.002,0.002,159.998,0.002z"/>
<path fill-rule="evenodd" clip-rule="evenodd" fill="#EEEEEE" d="M159.725,157.022c-51.824,0-103.648,0-155.472-0.001
	c-4.247,0-4.25-0.004-4.25-4.284c-0.001-12.581-0.005-25.163,0.003-37.744c0.002-3.369,0.109-3.474,3.555-3.474
	c104.315-0.003,208.63-0.003,312.945,0c3.396,0,3.496,0.103,3.498,3.531c0.007,12.748,0.006,25.495,0.001,38.243
	c-0.002,3.694-0.033,3.726-3.807,3.726C264.039,157.022,211.882,157.022,159.725,157.022z"/>
<path fill-rule="evenodd" clip-rule="evenodd" fill="#EEEEEE" d="M159.993,223.021c51.908,0,103.815,0,155.723,0.001
	c4.285,0,4.289,0.003,4.289,4.245c0.002,12.497,0.004,24.995-0.001,37.493c-0.002,3.735-0.028,3.763-3.769,3.763
	c-80.902,0.002-161.805,0.002-242.707,0.002c-23.246,0-46.492,0.001-69.738-0.002c-3.759-0.001-3.786-0.027-3.788-3.743
	c-0.005-12.664-0.004-25.329,0-37.993c0.001-3.735,0.029-3.764,3.768-3.764C55.846,223.02,107.919,223.021,159.993,223.021z"/>
</svg>
