<?xml version="1.0" encoding="utf-8"?>

<!-- License Agreement at http://iconmonstr.com/license/ -->

<!DOCTYPE svg PUBLIC "-//W3C//DTD SVG 1.1//EN" "http://www.w3.org/Graphics/SVG/1.1/DTD/svg11.dtd">
<svg version="1.1" xmlns="http://www.w3.org/2000/svg" xmlns:xlink="http://www.w3.org/1999/xlink" x="0px" y="0px"
	 width="512px" height="512px" viewBox="0 0 512 512" enable-background="new 0 0 512 512" xml:space="preserve">
<path id="bookmark-25-icon" d="M377.343,148.684c-46.756,0-84.66,37.902-84.66,84.658c0,46.758,37.904,84.66,84.66,84.66
	s84.658-37.902,84.658-84.66C462.001,186.586,424.099,148.684,377.343,148.684z M429.372,248.727H327.78v-28.301h101.592V248.727z
	 M364.606,347.299l18.709,104.619l-127.316-68.09l-127.314,68.09l25.414-142.125L49.999,209.75l143.021-19.748l62.979-129.92
	l43.281,89.286c-10.756,10.023-18.975,21.357-24.912,33.429l-18.369-37.892l-38.314,79.042l-87.014,12.015l63.334,60.865
	l-15.463,86.467l77.457-41.425l77.457,41.425l-8.572-47.941C337.208,341.708,350.628,345.764,364.606,347.299z"/>
</svg>
