<?xml version="1.0" encoding="utf-8"?>

<!-- License Agreement at http://iconmonstr.com/license/ -->

<!DOCTYPE svg PUBLIC "-//W3C//DTD SVG 1.1//EN" "http://www.w3.org/Graphics/SVG/1.1/DTD/svg11.dtd">
<svg version="1.1" xmlns="http://www.w3.org/2000/svg" xmlns:xlink="http://www.w3.org/1999/xlink" x="0px" y="0px"
	 width="512px" height="512px" viewBox="0 0 512 512" enable-background="new 0 0 512 512" xml:space="preserve">
<path id="checkbox-10-icon" d="M215.056,431v-40h82v40H215.056z M215.056,81v40h82V81H215.056z M81,296.668h40v-82.001H81V296.668z
	 M337.056,121H391v53.667h40V81h-93.944V121z M175.056,391H121v-54.332H81V431h94.056V391z M391,336.668V391h-53.944v40H431v-94.332
	H391z M431,214.667h-40v82.001h40V214.667z M121,174.667V121h54.056V81H81v93.667H121z"/>
</svg>
