<?xml version="1.0" encoding="utf-8"?>

<!-- License Agreement at http://iconmonstr.com/license/ -->

<!DOCTYPE svg PUBLIC "-//W3C//DTD SVG 1.1//EN" "http://www.w3.org/Graphics/SVG/1.1/DTD/svg11.dtd">
<svg version="1.1" xmlns="http://www.w3.org/2000/svg" xmlns:xlink="http://www.w3.org/1999/xlink" x="0px" y="0px"
	 width="512px" height="512px" viewBox="0 0 512 512" enable-background="new 0 0 512 512" xml:space="preserve">
<path id="copyright-4-icon" d="M256,50C142.229,50,50,142.229,50,256c0,113.77,92.229,206,206,206c113.771,0,206-92.23,206-206
	C462,142.229,369.771,50,256,50z M373.38,373.379c-64.872,64.872-169.878,64.882-234.76,0c-64.869-64.87-64.882-169.877,0-234.759
	c64.871-64.87,169.879-64.882,234.76,0C438.249,203.488,438.262,308.499,373.38,373.379z M348.255,268.933l24.931,16.345
	c-12.927,18.433-28.722,30.535-52.525,30.535c-32.981,0-59.813-26.832-59.813-59.812c0-32.981,26.832-59.812,59.813-59.812
	c23.625,0,39.471,11.922,52.526,30.537l-24.932,16.344c-3.757-5.178-11.169-17.02-27.595-17.02
	c-16.515,0-29.951,13.437-29.951,29.952c0,16.518,13.437,29.953,29.951,29.953C337.185,285.953,344.667,273.881,348.255,268.933z
	 M201.686,285.953c-16.516,0-29.952-13.436-29.952-29.953c0-16.515,13.437-29.952,29.952-29.952
	c16.426,0,23.837,11.842,27.595,17.02l24.931-16.344c-13.055-18.615-28.9-30.537-52.525-30.537
	c-32.981,0-59.813,26.832-59.813,59.812c0,32.98,26.832,59.812,59.813,59.812c23.803,0,39.599-12.103,52.524-30.535l-24.93-16.345
	C225.691,273.881,218.209,285.953,201.686,285.953z"/>
</svg>
