<?xml version="1.0" encoding="utf-8"?>

<!-- License Agreement at http://iconmonstr.com/license/ -->

<!DOCTYPE svg PUBLIC "-//W3C//DTD SVG 1.1//EN" "http://www.w3.org/Graphics/SVG/1.1/DTD/svg11.dtd">
<svg version="1.1" xmlns="http://www.w3.org/2000/svg" xmlns:xlink="http://www.w3.org/1999/xlink" x="0px" y="0px"
	 width="512px" height="512px" viewBox="0 0 512 512" enable-background="new 0 0 512 512" xml:space="preserve">
<path id="note-21-icon" d="M116.333,422V90h279.334c0,0,0,186.325,0,218.075c0,63.121-77.928,37.833-77.928,37.833
	s23.859,76.092-35,76.092C250.677,422,234.675,422,116.333,422z M435.667,311.528V50H76.333v412h207.016
	C351.514,462,435.667,372.931,435.667,311.528z M249.842,352.15c-24.656,8.666-44.981-1.271-40.903-24.948
	c4.077-23.684,27.474-74.387,30.812-83.972c3.335-9.588-3.061-12.217-9.917-8.317c-3.954,2.282-9.83,6.854-14.876,11.297
	c-1.397-2.815-3.366-6.035-4.843-9.118c8.232-8.25,21.993-19.31,38.285-23.317c19.463-4.805,51.995,2.875,38.013,40.079
	c-9.984,26.517-17.045,44.816-21.495,58.443c-4.446,13.632,0.836,16.49,8.621,11.179c6.081-4.152,12.562-9.8,17.311-14.182
	c2.197,3.571,2.9,4.71,5.073,8.813C287.678,326.558,266.111,346.334,249.842,352.15z M300.926,188.118
	c-11.183,9.519-27.759,9.312-37.031-0.466c-9.271-9.772-7.724-25.411,3.456-34.933c11.183-9.518,27.761-9.312,37.031,0.46
	C313.652,162.955,312.106,178.596,300.926,188.118z"/>
</svg>
